<svg xmlns="http://www.w3.org/2000/svg" viewBox="0 0 1600 900" width="1600" height="900" role="img" aria-labelledby="t d">
<title id="t">未知との遭遇</title>
<desc id="d">暗い野原に一人で立つ人影の前に、封筒のフラップのかたちをした光の戸口が開いている。</desc>
<defs>
  <linearGradient id="sky" x1="0" y1="0" x2="0" y2="1">
    <stop offset="0" stop-color="#0A120E"/><stop offset=".62" stop-color="#132019"/><stop offset="1" stop-color="#16251C"/>
  </linearGradient>
  <linearGradient id="ground" x1="0" y1="0" x2="0" y2="1">
    <stop offset="0" stop-color="#1B2C22"/><stop offset="1" stop-color="#0D1610"/>
  </linearGradient>
  <linearGradient id="beam" x1="0" y1="0" x2="0" y2="1">
    <stop offset="0" stop-color="#EFE9DC" stop-opacity=".46"/>
    <stop offset=".45" stop-color="#E6DFCE" stop-opacity=".16"/>
    <stop offset="1" stop-color="#DCD3BE" stop-opacity="0"/>
  </linearGradient>
  <radialGradient id="glow" cx=".5" cy=".5" r=".5">
    <stop offset="0" stop-color="#F3EEE0" stop-opacity=".55"/>
    <stop offset=".45" stop-color="#CFE0CC" stop-opacity=".14"/>
    <stop offset="1" stop-color="#8FB59A" stop-opacity="0"/>
  </radialGradient>
  <linearGradient id="door" x1="0" y1="0" x2="0" y2="1">
    <stop offset="0" stop-color="#FFFDF6"/><stop offset="1" stop-color="#EFE7D4"/>
  </linearGradient>
  <linearGradient id="shadow" x1="0" y1="0" x2="0" y2="1">
    <stop offset="0" stop-color="#050A07" stop-opacity=".55"/><stop offset="1" stop-color="#050A07" stop-opacity="0"/>
  </linearGradient>
</defs>

<rect width="1600" height="900" fill="url(#sky)"/>
<rect y="560" width="1600" height="340" fill="url(#ground)"/>
<g><circle cx="259.2" cy="67.8" r="0.9" fill="#EFE9DC" opacity="0.3"/><circle cx="769.5" cy="488.6" r="1.2" fill="#EFE9DC" opacity="0.1"/><circle cx="331" cy="116.4" r="1.5" fill="#EFE9DC" opacity="0.1"/><circle cx="200.3" cy="334.2" r="1.1" fill="#EFE9DC" opacity="0.2"/><circle cx="499.4" cy="391.7" r="1.5" fill="#EFE9DC" opacity="0.2"/><circle cx="1040.7" cy="75.7" r="1.8" fill="#EFE9DC" opacity="0.2"/><circle cx="1045.6" cy="57.7" r="1.3" fill="#EFE9DC" opacity="0.2"/><circle cx="263.2" cy="269.3" r="1.3" fill="#EFE9DC" opacity="0.2"/><circle cx="789" cy="465.5" r="0.9" fill="#EFE9DC" opacity="0.1"/><circle cx="755" cy="346.3" r="1.6" fill="#EFE9DC" opacity="0.1"/><circle cx="861.5" cy="176.1" r="0.9" fill="#EFE9DC" opacity="0.1"/><circle cx="596.3" cy="179.4" r="1.7" fill="#EFE9DC" opacity="0.2"/><circle cx="904.8" cy="265.2" r="1.5" fill="#EFE9DC" opacity="0.1"/><circle cx="1374.6" cy="385" r="1" fill="#EFE9DC" opacity="0.1"/><circle cx="811.6" cy="356.1" r="1.7" fill="#EFE9DC" opacity="0.1"/><circle cx="492.5" cy="389.6" r="1.9" fill="#EFE9DC" opacity="0.2"/><circle cx="1508.9" cy="346.7" r="1.9" fill="#EFE9DC" opacity="0.2"/><circle cx="396.3" cy="284.3" r="0.9" fill="#EFE9DC" opacity="0.2"/><circle cx="372.6" cy="201" r="1" fill="#EFE9DC" opacity="0.2"/><circle cx="825" cy="302.6" r="1" fill="#EFE9DC" opacity="0.1"/><circle cx="375.8" cy="116.4" r="1.1" fill="#EFE9DC" opacity="0.3"/><circle cx="1354.4" cy="332.3" r="1.6" fill="#EFE9DC" opacity="0.1"/><circle cx="78.6" cy="198" r="1" fill="#EFE9DC" opacity="0.3"/><circle cx="477.9" cy="52.2" r="1.7" fill="#EFE9DC" opacity="0.2"/><circle cx="1457" cy="482.3" r="1.4" fill="#EFE9DC" opacity="0.2"/><circle cx="1345" cy="273.5" r="1.2" fill="#EFE9DC" opacity="0.1"/><circle cx="424.8" cy="73.2" r="1.5" fill="#EFE9DC" opacity="0.1"/><circle cx="1180" cy="246.3" r="1.4" fill="#EFE9DC" opacity="0.1"/><circle cx="293.9" cy="240.6" r="1.6" fill="#EFE9DC" opacity="0.1"/><circle cx="858.2" cy="456.5" r="1.8" fill="#EFE9DC" opacity="0.1"/><circle cx="1075.4" cy="245.8" r="1.4" fill="#EFE9DC" opacity="0.2"/><circle cx="221.9" cy="185.5" r="1.4" fill="#EFE9DC" opacity="0.1"/><circle cx="74.6" cy="415.4" r="2" fill="#EFE9DC" opacity="0.2"/><circle cx="1462" cy="461.5" r="1.2" fill="#EFE9DC" opacity="0.3"/><circle cx="602.5" cy="494.3" r="1.6" fill="#EFE9DC" opacity="0"/><circle cx="1472.8" cy="150.5" r="1" fill="#EFE9DC" opacity="0.3"/><circle cx="833.9" cy="486.1" r="1.3" fill="#EFE9DC" opacity="0.2"/><circle cx="230.7" cy="359.2" r="0.9" fill="#EFE9DC" opacity="0.2"/><circle cx="985.9" cy="251" r="1.5" fill="#EFE9DC" opacity="0.2"/><circle cx="1537.3" cy="339" r="1.8" fill="#EFE9DC" opacity="0.3"/><circle cx="1304.9" cy="140.5" r="0.8" fill="#EFE9DC" opacity="0.2"/><circle cx="328.5" cy="481.3" r="1.3" fill="#EFE9DC" opacity="0.3"/><circle cx="1233.8" cy="142.8" r="0.8" fill="#EFE9DC" opacity="0.1"/><circle cx="720.6" cy="242.7" r="1" fill="#EFE9DC" opacity="0.1"/><circle cx="1328.6" cy="186" r="1.8" fill="#EFE9DC" opacity="0.3"/><circle cx="362" cy="204.4" r="1" fill="#EFE9DC" opacity="0.2"/><circle cx="789" cy="337.5" r="0.9" fill="#EFE9DC" opacity="0.1"/><circle cx="1458.8" cy="478.9" r="1.1" fill="#EFE9DC" opacity="0.2"/><circle cx="181.4" cy="73.9" r="1.4" fill="#EFE9DC" opacity="0.1"/><circle cx="417" cy="273" r="0.9" fill="#EFE9DC" opacity="0.2"/><circle cx="1378.1" cy="209.9" r="1.8" fill="#EFE9DC" opacity="0.2"/><circle cx="1433" cy="225.6" r="1.1" fill="#EFE9DC" opacity="0.3"/><circle cx="1022.3" cy="452.5" r="0.9" fill="#EFE9DC" opacity="0.1"/><circle cx="478.3" cy="476.6" r="1.2" fill="#EFE9DC" opacity="0"/><circle cx="370.6" cy="266" r="1.4" fill="#EFE9DC" opacity="0.1"/><circle cx="279.5" cy="225.5" r="1.5" fill="#EFE9DC" opacity="0.3"/><circle cx="1069.2" cy="423.7" r="1.8" fill="#EFE9DC" opacity="0.1"/><circle cx="669" cy="94.4" r="1.3" fill="#EFE9DC" opacity="0.1"/><circle cx="749.7" cy="232.1" r="1.7" fill="#EFE9DC" opacity="0.2"/><circle cx="221.6" cy="429.7" r="0.8" fill="#EFE9DC" opacity="0.3"/><circle cx="774.5" cy="444.8" r="1.5" fill="#EFE9DC" opacity="0.1"/><circle cx="311.7" cy="47.1" r="1.1" fill="#EFE9DC" opacity="0.1"/><circle cx="1229" cy="168" r="1.9" fill="#EFE9DC" opacity="0.1"/><circle cx="1528.7" cy="345.4" r="1.1" fill="#EFE9DC" opacity="0.2"/></g>

<!-- 地平線のほのかな明るみ -->
<ellipse cx="800" cy="560" rx="620" ry="150" fill="url(#glow)" opacity=".5"/>
<rect x="0" y="559" width="1600" height="1.5" fill="#5E7A64" opacity=".22"/>

<!-- 光の帯 -->
<path d="M773 560 L827 560 L1130 900 L470 900 Z" fill="url(#beam)"/>
<path d="M785.15 560 L814.85 560 L950 900 L650 900 Z" fill="url(#beam)" opacity=".55"/>

<!-- 開いた戸口。封筒のフラップの形をしている -->
<path d="M773 560 L773 372 L800 336 L827 372 L827 560 Z" fill="url(#door)"/>
<ellipse cx="800" cy="432" rx="150" ry="190" fill="url(#glow)" opacity=".75"/>
<g><circle cx="810.5" cy="666.2" r="2.1" fill="#F6F1E4" opacity="0.2"/><circle cx="871.9" cy="792.2" r="1.7" fill="#F6F1E4" opacity="0.1"/><circle cx="909.3" cy="766.6" r="1.7" fill="#F6F1E4" opacity="0.1"/><circle cx="858.6" cy="699.5" r="2.3" fill="#F6F1E4" opacity="0.2"/><circle cx="771.2" cy="743.9" r="2.4" fill="#F6F1E4" opacity="0.2"/><circle cx="920.4" cy="810.2" r="1.8" fill="#F6F1E4" opacity="0.1"/><circle cx="797.7" cy="871.7" r="0.9" fill="#F6F1E4" opacity="0"/><circle cx="823.5" cy="642.8" r="1" fill="#F6F1E4" opacity="0.2"/><circle cx="829.6" cy="754.2" r="1.6" fill="#F6F1E4" opacity="0.2"/><circle cx="731.8" cy="760.8" r="1.7" fill="#F6F1E4" opacity="0.2"/><circle cx="840" cy="773.7" r="2.5" fill="#F6F1E4" opacity="0.2"/><circle cx="799" cy="562.1" r="1.6" fill="#F6F1E4" opacity="0.2"/><circle cx="810.5" cy="564.3" r="1.7" fill="#F6F1E4" opacity="0.4"/><circle cx="642" cy="748.9" r="0.9" fill="#F6F1E4" opacity="0.1"/><circle cx="682.7" cy="869.3" r="1.2" fill="#F6F1E4" opacity="0.1"/><circle cx="804.6" cy="569.8" r="2.2" fill="#F6F1E4" opacity="0.1"/><circle cx="785.5" cy="800.9" r="1.7" fill="#F6F1E4" opacity="0.1"/><circle cx="786.6" cy="579.4" r="1.2" fill="#F6F1E4" opacity="0.3"/><circle cx="644.4" cy="808.9" r="1.7" fill="#F6F1E4" opacity="0.1"/><circle cx="784.4" cy="602.7" r="2.6" fill="#F6F1E4" opacity="0.1"/><circle cx="931.3" cy="788.9" r="1.7" fill="#F6F1E4" opacity="0.1"/><circle cx="821.2" cy="770" r="1.9" fill="#F6F1E4" opacity="0.2"/><circle cx="810" cy="876.5" r="2" fill="#F6F1E4" opacity="0.1"/><circle cx="801.4" cy="807.6" r="1.9" fill="#F6F1E4" opacity="0.1"/><circle cx="830.8" cy="669" r="1.1" fill="#F6F1E4" opacity="0.1"/><circle cx="630.3" cy="824.5" r="2.4" fill="#F6F1E4" opacity="0.1"/><circle cx="813.2" cy="885.4" r="0.9" fill="#F6F1E4" opacity="0"/><circle cx="789.6" cy="737.6" r="2.3" fill="#F6F1E4" opacity="0.2"/><circle cx="713.4" cy="767.2" r="2.2" fill="#F6F1E4" opacity="0.1"/><circle cx="768.7" cy="676.6" r="1.3" fill="#F6F1E4" opacity="0.2"/><circle cx="828.9" cy="717.8" r="2.4" fill="#F6F1E4" opacity="0.2"/><circle cx="820.2" cy="619.7" r="1.9" fill="#F6F1E4" opacity="0.1"/><circle cx="828.5" cy="890.8" r="1.2" fill="#F6F1E4" opacity="0"/><circle cx="696.4" cy="852.3" r="1.3" fill="#F6F1E4" opacity="0.1"/><circle cx="836" cy="795.7" r="1.3" fill="#F6F1E4" opacity="0.1"/><circle cx="837" cy="877.6" r="1.3" fill="#F6F1E4" opacity="0.1"/><circle cx="740.2" cy="621.5" r="2.4" fill="#F6F1E4" opacity="0.3"/><circle cx="961.9" cy="854.8" r="1.3" fill="#F6F1E4" opacity="0.1"/><circle cx="631.5" cy="895.6" r="2.1" fill="#F6F1E4" opacity="0"/><circle cx="944.3" cy="781.1" r="2" fill="#F6F1E4" opacity="0.2"/><circle cx="888.3" cy="770.8" r="2.1" fill="#F6F1E4" opacity="0.1"/><circle cx="691.2" cy="708.9" r="2.4" fill="#F6F1E4" opacity="0.3"/><circle cx="931.9" cy="752.7" r="1.7" fill="#F6F1E4" opacity="0.2"/><circle cx="903.7" cy="770.8" r="1.6" fill="#F6F1E4" opacity="0.1"/><circle cx="882.3" cy="845.1" r="1.7" fill="#F6F1E4" opacity="0.1"/><circle cx="804.1" cy="609.6" r="1.2" fill="#F6F1E4" opacity="0.1"/><circle cx="892.6" cy="640.9" r="1.3" fill="#F6F1E4" opacity="0.3"/><circle cx="810.3" cy="735.4" r="1.7" fill="#F6F1E4" opacity="0.1"/><circle cx="861.8" cy="638.3" r="1.3" fill="#F6F1E4" opacity="0.3"/><circle cx="800.2" cy="600.2" r="2" fill="#F6F1E4" opacity="0.3"/><circle cx="738.4" cy="701" r="2.1" fill="#F6F1E4" opacity="0.1"/><circle cx="730.1" cy="793" r="2.2" fill="#F6F1E4" opacity="0.1"/><circle cx="786.9" cy="589" r="1.1" fill="#F6F1E4" opacity="0.4"/><circle cx="834.5" cy="623.7" r="1.6" fill="#F6F1E4" opacity="0.3"/><circle cx="782.3" cy="633" r="1.5" fill="#F6F1E4" opacity="0.1"/><circle cx="639.2" cy="813.8" r="1.8" fill="#F6F1E4" opacity="0.1"/><circle cx="836.9" cy="752.1" r="2.3" fill="#F6F1E4" opacity="0.2"/><circle cx="674.8" cy="859.8" r="1.5" fill="#F6F1E4" opacity="0"/><circle cx="803.1" cy="589" r="2.5" fill="#F6F1E4" opacity="0.1"/><circle cx="984.8" cy="773" r="1.7" fill="#F6F1E4" opacity="0.2"/><circle cx="650.4" cy="792.2" r="2.2" fill="#F6F1E4" opacity="0.1"/><circle cx="800.1" cy="659.8" r="0.9" fill="#F6F1E4" opacity="0.3"/><circle cx="876.7" cy="817.8" r="2.2" fill="#F6F1E4" opacity="0.1"/><circle cx="849.2" cy="659.8" r="2.1" fill="#F6F1E4" opacity="0.1"/><circle cx="857.4" cy="660.8" r="2.4" fill="#F6F1E4" opacity="0.1"/><circle cx="830.9" cy="615.7" r="0.9" fill="#F6F1E4" opacity="0.4"/><circle cx="695.5" cy="698.7" r="1.4" fill="#F6F1E4" opacity="0.2"/><circle cx="921.4" cy="732.1" r="1.4" fill="#F6F1E4" opacity="0.1"/><circle cx="758.9" cy="857.8" r="1.4" fill="#F6F1E4" opacity="0.1"/><circle cx="789.6" cy="619.9" r="1.1" fill="#F6F1E4" opacity="0.3"/><circle cx="651.9" cy="852.3" r="1.3" fill="#F6F1E4" opacity="0.1"/><circle cx="675.5" cy="899.5" r="2.1" fill="#F6F1E4" opacity="0"/><circle cx="801.5" cy="648" r="2.3" fill="#F6F1E4" opacity="0.2"/><circle cx="863" cy="785.1" r="1.4" fill="#F6F1E4" opacity="0.1"/><circle cx="766" cy="649.3" r="2.5" fill="#F6F1E4" opacity="0.3"/><circle cx="861.9" cy="883.5" r="0.9" fill="#F6F1E4" opacity="0"/><circle cx="815.9" cy="647.1" r="1.5" fill="#F6F1E4" opacity="0.2"/><circle cx="725.4" cy="776.5" r="2" fill="#F6F1E4" opacity="0.1"/><circle cx="789.1" cy="878.9" r="1.2" fill="#F6F1E4" opacity="0.1"/><circle cx="832.9" cy="815.8" r="2.2" fill="#F6F1E4" opacity="0.1"/><circle cx="1019.5" cy="790.8" r="1.6" fill="#F6F1E4" opacity="0.1"/><circle cx="787.8" cy="715.8" r="2.5" fill="#F6F1E4" opacity="0.2"/><circle cx="718.3" cy="835" r="1.4" fill="#F6F1E4" opacity="0.1"/><circle cx="785.2" cy="575.1" r="1.7" fill="#F6F1E4" opacity="0.3"/><circle cx="889.7" cy="643.4" r="1.4" fill="#F6F1E4" opacity="0.2"/><circle cx="673" cy="809" r="1.7" fill="#F6F1E4" opacity="0.1"/><circle cx="813.7" cy="662.1" r="2" fill="#F6F1E4" opacity="0.2"/><circle cx="827" cy="779.5" r="1" fill="#F6F1E4" opacity="0.1"/><circle cx="797.3" cy="740.8" r="1.8" fill="#F6F1E4" opacity="0.2"/><circle cx="818.3" cy="632.1" r="2" fill="#F6F1E4" opacity="0.1"/></g>

<!-- 人影。光のふちに立って、ただ見ている -->
<g transform="translate(612 800) scale(1.34)">
  <path d="M-4 0 L4 0 L-96 62 L-126 62 Z" fill="url(#shadow)" opacity=".3"/>
  <ellipse cx="0" cy="1" rx="19" ry="4.5" fill="#050A07" opacity=".55"/>
  <g fill="#070E0A">
    <path d="M-11 -30 L-10 -3 C-10 0 -3 0 -3 -3 L-2.2 -30 Z"/>
    <path d="M11 -30 L10 -3 C10 0 3 0 3 -3 L2.2 -30 Z"/>
    <path d="M-11.5 -29 L-15.5 -59 C-16.5 -71 -9 -78 0 -78 C9 -78 16.5 -71 15.5 -59 L11.5 -29 Z"/>
    <rect x="-4.5" y="-86" width="9" height="10"/>
    <circle cx="0" cy="-95" r="11.2"/>
  </g>
  <path d="M-11.5 -29 L-15.5 -59 C-16.5 -71 -9 -78 0 -78 L0 -29 Z" fill="#EFE9DC" opacity=".05"/>
</g>

<!-- 画面のふち。落ち着かせる -->
<rect width="1600" height="900" fill="none" stroke="#0A120E" stroke-width="0" />
</svg>
